<svg xmlns="http://www.w3.org/2000/svg" viewBox="0 0 500 500" role="img" aria-labelledby="title desc"><title id="title">MimiMind virtual cat</title><desc id="desc">Avatar kucing virtual MimiMind AI.</desc><rect width="500" height="500" rx="110" fill="#ffeaf4"/><circle cx="250" cy="255" r="150" fill="#fff9fb" stroke="#b44678" stroke-width="12"/><path d="M120 190 105 65l105 75M380 190l15-125-105 75" fill="#f1a1c2" stroke="#b44678" stroke-width="12" stroke-linejoin="round"/><circle cx="195" cy="250" r="17" fill="#44384c"/><circle cx="305" cy="250" r="17" fill="#44384c"/><path d="M250 280l-17 12 17 12 17-12zM215 330c22 22 48 22 70 0" fill="none" stroke="#b44678" stroke-width="10" stroke-linecap="round"/><path d="M125 285 55 270M125 315 55 320M375 285l70-15M375 315l70 5" stroke="#b8899f" stroke-width="8" stroke-linecap="round"/><path d="M250 92c-20-35 30-55 42-12 18-32 65 5 34 31-27 22-55 13-76-19z" fill="#b44678"/></svg>
